<?xml version="1.0" encoding="UTF-8"?> <svg xmlns="http://www.w3.org/2000/svg" width="24" height="24" viewBox="0 0 24 24" fill="none"><path d="M3.66797 18.5833V5.25H20.3347V18.5833H3.66797ZM5.33464 16.9167H18.668V6.91667H5.33464V16.9167ZM8.66798 16.0833H10.3347V15.25H11.168C11.4041 15.25 11.602 15.1701 11.7617 15.0104C11.9215 14.8507 12.0013 14.6528 12.0013 14.4167V11.9167C12.0013 11.6806 11.9215 11.4826 11.7617 11.3229C11.602 11.1632 11.4041 11.0833 11.168 11.0833H8.66798V10.25H12.0013V8.58333H10.3347V7.75H8.66798V8.58333H7.83465C7.59854 8.58333 7.40062 8.66319 7.2409 8.82292C7.08117 8.98264 7.00131 9.18056 7.00131 9.41667V11.9167C7.00131 12.1528 7.08117 12.3507 7.2409 12.5104C7.40062 12.6701 7.59854 12.75 7.83465 12.75H10.3347V13.5833H7.00131V15.25H8.66798V16.0833ZM15.3347 15.4583L17.0013 13.7917H13.668L15.3347 15.4583ZM13.668 10.25H17.0013L15.3347 8.58333L13.668 10.25Z" fill="#8d45f6"></path></svg> 