<?xml version="1.0" encoding="UTF-8"?> <svg xmlns="http://www.w3.org/2000/svg" width="24" height="24" viewBox="0 0 24 24" fill="none"><g clip-path="url(#clip0_15582_43263)"><path d="M11.7584 12.882L11.0334 12.159C12.1947 10.6209 12.8262 8.74941 12.8334 6.824H13.6667C13.8877 6.824 14.0997 6.73645 14.256 6.58061C14.4122 6.42477 14.5 6.2134 14.5 5.993C14.5 5.77261 14.4122 5.56124 14.256 5.4054C14.0997 5.24955 13.8877 5.162 13.6667 5.162H10.3334V4.331C10.3334 4.11061 10.2456 3.89924 10.0893 3.74339C9.93299 3.58755 9.72103 3.5 9.50002 3.5C9.279 3.5 9.06704 3.58755 8.91076 3.74339C8.75448 3.89924 8.66668 4.11061 8.66668 4.331V5.162H5.33334C5.11232 5.162 4.90036 5.24955 4.74408 5.4054C4.5878 5.56124 4.5 5.77261 4.5 5.993C4.5 6.2134 4.5878 6.42477 4.74408 6.58061C4.90036 6.73645 5.11232 6.824 5.33334 6.824H11.1667C11.1649 8.31206 10.7021 9.76322 9.84168 10.979L7.59168 8.72699C7.43476 8.57051 7.22193 8.4826 7.00001 8.4826C6.77809 8.4826 6.56526 8.57051 6.40834 8.72699C6.25142 8.88348 6.16326 9.09571 6.16326 9.31701C6.16326 9.5383 6.25142 9.75054 6.40834 9.90702L8.73335 12.2255C8.5418 12.4023 8.33856 12.5661 8.12501 12.7158L5.68334 14.4609C5.54106 14.5636 5.43496 14.7085 5.3802 14.875C5.32544 15.0414 5.32482 15.2208 5.37842 15.3876C5.43202 15.5544 5.5371 15.7001 5.67867 15.8038C5.82023 15.9075 5.99103 15.9639 6.16667 15.965C6.34035 15.9639 6.50933 15.9087 6.65001 15.8071L9.09168 14.0703C9.382 13.8648 9.66024 13.6429 9.92502 13.4055L10.5834 14.062C10.6608 14.1399 10.753 14.2017 10.8545 14.2439C10.9561 14.2861 11.065 14.3078 11.175 14.3078C11.285 14.3078 11.394 14.2861 11.4955 14.2439C11.5971 14.2017 11.6892 14.1399 11.7667 14.062C11.8443 13.9842 11.9056 13.8919 11.9472 13.7903C11.9888 13.6888 12.0098 13.58 12.009 13.4703C12.0083 13.3606 11.9857 13.2521 11.9427 13.1511C11.8997 13.0502 11.837 12.9587 11.7584 12.882ZM21.0917 18.9483L16.925 9.8073C16.8588 9.66221 16.752 9.53921 16.6175 9.45295C16.4831 9.3667 16.3266 9.32084 16.1667 9.32084C16.0068 9.32084 15.8503 9.3667 15.7159 9.45295C15.5814 9.53921 15.4747 9.66221 15.4084 9.8073L11.2417 18.9483C11.1887 19.0487 11.1568 19.1588 11.148 19.2719C11.1393 19.385 11.1539 19.4987 11.1909 19.606C11.2279 19.7133 11.2865 19.8118 11.3632 19.8957C11.4398 19.9795 11.5329 20.0468 11.6366 20.0934C11.7403 20.14 11.8525 20.1649 11.9663 20.1666C12.08 20.1683 12.1929 20.1468 12.298 20.1034C12.4031 20.06 12.4982 19.9955 12.5773 19.9141C12.6565 19.8326 12.7181 19.7358 12.7584 19.6297L14.05 16.796H18.2834L19.575 19.6297C19.6408 19.7755 19.7473 19.8993 19.8818 19.9863C20.0163 20.0733 20.1731 20.1197 20.3334 20.12C20.4513 20.1195 20.5678 20.094 20.6751 20.0452C20.8759 19.9545 21.0325 19.7882 21.1106 19.5826C21.1887 19.377 21.1819 19.1489 21.0917 18.9483ZM14.8084 15.134L16.1667 12.159L17.525 15.134H14.8084Z" fill="#8d45f6"></path></g><defs><clipPath id="clip0_15582_43263"><rect width="20" height="20" fill="transparent" transform="translate(2 2)"></rect></clipPath></defs></svg>