<?xml version="1.0" encoding="UTF-8"?> <svg xmlns="http://www.w3.org/2000/svg" width="24" height="24" viewBox="0 0 24 24" fill="none"><g clip-path="url(#clip0_15582_42079)"><path d="M9.16538 15.833L5.33203 11.9997L9.16538 8.16634L10.332 9.37467L7.70704 11.9997L10.332 14.6247L9.16538 15.833ZM6.16537 16.1663H7.83204V16.9997H16.1654V16.1663H17.8321V19.4997C17.8321 19.958 17.6689 20.3504 17.3425 20.6768C17.0161 21.0031 16.6237 21.1663 16.1654 21.1663H7.83204C7.37371 21.1663 6.98134 21.0031 6.65495 20.6768C6.32856 20.3504 6.16537 19.958 6.16537 19.4997V16.1663ZM7.83204 7.83301H6.16537V4.49967C6.16537 4.04134 6.32856 3.64898 6.65495 3.32259C6.98134 2.9962 7.37371 2.83301 7.83204 2.83301H16.1654C16.6237 2.83301 17.0161 2.9962 17.3425 3.32259C17.6689 3.64898 17.8321 4.04134 17.8321 4.49967V7.83301H16.1654V6.99967H7.83204V7.83301ZM7.83204 18.6663V19.4997H16.1654V18.6663H7.83204ZM7.83204 5.33301H16.1654V4.49967H7.83204V5.33301ZM14.8321 15.833L13.6654 14.6247L16.2904 11.9997L13.6654 9.37467L14.8321 8.16634L18.6654 11.9997L14.8321 15.833Z" fill="#8d45f6"></path></g><defs><clipPath id="clip0_15582_42079"><rect width="20" height="20" fill="white" transform="translate(2 2)"></rect></clipPath></defs></svg> 