<?xml version="1.0" encoding="UTF-8"?> <svg xmlns="http://www.w3.org/2000/svg" width="19" height="20" viewBox="0 0 19 20" fill="none"><path d="M9.4167 11.5833L7.75002 9.91667L9.4167 8.25L11.0834 9.91667L9.4167 11.5833ZM7.64586 6.6875L5.56252 4.60417L9.4167 0.75L13.2709 4.60417L11.1875 6.6875L9.4167 4.91667L7.64586 6.6875ZM4.10418 13.7708L0.25 9.91667L4.10418 6.0625L6.18752 8.14583L4.41668 9.91667L6.18752 11.6875L4.10418 13.7708ZM14.7292 13.7708L12.6459 11.6875L14.4167 9.91667L12.6459 8.14583L14.7292 6.0625L18.5834 9.91667L14.7292 13.7708ZM9.4167 19.0833L5.56252 15.2292L7.64586 13.1458L9.4167 14.9167L11.1875 13.1458L13.2709 15.2292L9.4167 19.0833Z" fill="#111111"></path></svg> 