<?xml version="1.0" encoding="UTF-8"?> <svg xmlns="http://www.w3.org/2000/svg" width="24" height="24" viewBox="0 0 24 24" fill="none"><g clip-path="url(#clip0_15582_43206)"><path d="M12.0013 20.3337C10.8486 20.3337 9.76521 20.1149 8.75132 19.6774C7.73743 19.2399 6.85548 18.6462 6.10548 17.8962C5.35547 17.1462 4.76172 16.2642 4.32422 15.2503C3.88672 14.2364 3.66797 13.1531 3.66797 12.0003C3.66797 10.8475 3.88672 9.76421 4.32422 8.75033C4.76172 7.73644 5.35547 6.85449 6.10548 6.10449C6.85548 5.35449 7.73743 4.76074 8.75132 4.32324C9.76521 3.88574 10.8486 3.66699 12.0013 3.66699C13.1541 3.66699 14.2375 3.88574 15.2513 4.32324C16.2652 4.76074 17.1472 5.35449 17.8972 6.10449C18.6472 6.85449 19.2409 7.73644 19.6784 8.75033C20.1159 9.76421 20.3347 10.8475 20.3347 12.0003C20.3347 13.1531 20.1159 14.2364 19.6784 15.2503C19.2409 16.2642 18.6472 17.1462 17.8972 17.8962C17.1472 18.6462 16.2652 19.2399 15.2513 19.6774C14.2375 20.1149 13.1541 20.3337 12.0013 20.3337ZM12.0013 18.667C13.8624 18.667 15.4388 18.0212 16.7305 16.7295C18.0222 15.4378 18.668 13.8614 18.668 12.0003C18.668 10.1392 18.0222 8.56283 16.7305 7.27116C15.4388 5.97949 13.8624 5.33366 12.0013 5.33366C10.1402 5.33366 8.56382 5.97949 7.27215 7.27116C5.98048 8.56283 5.33464 10.1392 5.33464 12.0003C5.33464 13.8614 5.98048 15.4378 7.27215 16.7295C8.56382 18.0212 10.1402 18.667 12.0013 18.667ZM12.0013 17.0003C10.6124 17.0003 9.43188 16.5142 8.45965 15.542C7.48743 14.5698 7.00131 13.3892 7.00131 12.0003C7.00131 10.6114 7.48743 9.43088 8.45965 8.45866C9.43188 7.48644 10.6124 7.00033 12.0013 7.00033C13.3902 7.00033 14.5708 7.48644 15.543 8.45866C16.5152 9.43088 17.0014 10.6114 17.0014 12.0003C17.0014 13.3892 16.5152 14.5698 15.543 15.542C14.5708 16.5142 13.3902 17.0003 12.0013 17.0003ZM12.0013 15.3337C12.918 15.3337 13.7027 15.0073 14.3555 14.3545C15.0083 13.7017 15.3347 12.917 15.3347 12.0003C15.3347 11.0837 15.0083 10.2989 14.3555 9.64616C13.7027 8.99338 12.918 8.66699 12.0013 8.66699C11.0847 8.66699 10.2999 8.99338 9.64716 9.64616C8.99438 10.2989 8.66799 11.0837 8.66799 12.0003C8.66799 12.917 8.99438 13.7017 9.64716 14.3545C10.2999 15.0073 11.0847 15.3337 12.0013 15.3337ZM12.0013 13.667C11.543 13.667 11.1506 13.5038 10.8242 13.1774C10.4979 12.851 10.3347 12.4587 10.3347 12.0003C10.3347 11.542 10.4979 11.1496 10.8242 10.8232C11.1506 10.4969 11.543 10.3337 12.0013 10.3337C12.4597 10.3337 12.852 10.4969 13.1784 10.8232C13.5048 11.1496 13.668 11.542 13.668 12.0003C13.668 12.4587 13.5048 12.851 13.1784 13.1774C12.852 13.5038 12.4597 13.667 12.0013 13.667Z" fill="#8d45f6"></path></g><defs><clipPath id="clip0_15582_43206"><rect width="20" height="20" fill="white" transform="translate(2 2)"></rect></clipPath></defs></svg> 