<?xml version="1.0" encoding="UTF-8"?> <svg xmlns="http://www.w3.org/2000/svg" width="65" height="65" viewBox="0 0 65 65" fill="none"><path fill-rule="evenodd" clip-rule="evenodd" d="M39.453 18.2829C40.9345 16.5757 41.6777 14.7312 41.6777 12.7558C41.6777 12.4937 41.6651 12.2296 41.635 11.9656C40.6031 12.0175 39.5058 12.3211 38.3457 12.8701C37.1832 13.4274 36.2245 14.126 35.4707 14.9662C33.9609 16.6256 33.1107 18.6552 33.1107 20.5517C33.1107 20.8138 33.1281 21.0632 33.158 21.3002C35.5029 21.4853 37.6652 20.3125 39.453 18.2829ZM47.3411 46.5671C48.1848 45.3992 48.9129 44.1289 49.528 42.7488C49.7817 42.1637 50.0202 41.5542 50.2462 40.9178C49.2042 40.4935 48.2676 39.8961 47.429 39.1232C45.5784 37.4579 44.6369 35.3606 44.6092 32.8402C44.579 29.6045 46.0932 27.0822 49.154 25.2813C47.444 22.9211 44.8729 21.6111 41.4505 21.3429C40.1875 21.2387 38.6458 21.5031 36.8192 22.1414C34.8875 22.8297 33.748 23.175 33.4118 23.175C32.9621 23.175 31.9364 22.8797 30.339 22.2974C28.7371 21.7171 27.448 21.4219 26.465 21.4219C24.6684 21.4509 23.0001 21.9045 21.4562 22.7944C19.9122 23.6843 18.6786 24.8966 17.7514 26.4334C16.5714 28.3466 15.9824 30.6298 15.9824 33.2769C15.9824 35.5879 16.4193 37.9749 17.2908 40.4399C18.1047 42.7221 19.1434 44.7238 20.4068 46.4501C21.5844 48.0666 22.5675 49.2076 23.3534 49.8733C24.5847 50.9851 25.8183 51.5142 27.056 51.463C27.8698 51.4362 28.9342 51.1656 30.2553 50.6462C31.5746 50.1293 32.808 49.8733 33.9579 49.8733C35.0545 49.8733 36.2537 50.1293 37.5586 50.6462C38.8593 51.1656 39.9766 51.4216 40.9031 51.4216C42.1938 51.3922 43.399 50.8778 44.5239 49.8733C45.2495 49.2613 46.1911 48.1592 47.3411 46.5671Z" fill="#111111"></path></svg> 