<?xml version="1.0" encoding="UTF-8"?> <svg xmlns="http://www.w3.org/2000/svg" width="24" height="24" viewBox="0 0 24 24" fill="none"><g clip-path="url(#clip0_15582_41983)"><path fill-rule="evenodd" clip-rule="evenodd" d="M5.33464 12C4.41416 12 3.66797 12.7462 3.66797 13.6667V17.8333C3.66797 18.7538 4.41416 19.5 5.33464 19.5H9.50132C10.4218 19.5 11.168 18.7538 11.168 17.8333V13.6667C11.168 12.7462 10.4218 12 9.50132 12H5.33464ZM5.33464 13.6667L9.50132 13.6667L9.50132 17.8333L5.33464 17.8333V13.6667ZM14.5013 12C13.5809 12 12.8347 12.7462 12.8347 13.6667V17.8333C12.8347 18.7538 13.5809 19.5 14.5013 19.5H18.668C19.5885 19.5 20.3347 18.7538 20.3347 17.8333V13.6667C20.3347 12.7462 19.5885 12 18.668 12H14.5013ZM14.5013 13.6667L18.668 13.6667L18.668 17.8333L14.5013 17.8333V13.6667Z" fill="#8d45f6"></path><path d="M18.4571 9.5L16.7071 9.5C16.346 8.5 15.7314 7.69444 14.8633 7.08333C13.9953 6.47222 13.0265 6.16667 11.9571 6.16667C11.3321 6.16667 10.7244 6.28472 10.1341 6.52083C9.54385 6.75694 8.99871 7.125 8.49871 7.625L8.29037 7.83333L10.332 7.83333L10.332 9.5L5.33203 9.5L5.33203 4.5L6.9987 4.5L6.9987 6.79167L7.29037 6.45833C7.97093 5.77778 8.71051 5.28125 9.50913 4.96875C10.3077 4.65625 11.1237 4.5 11.9571 4.5C13.4987 4.5 14.8703 4.9618 16.0716 5.88542C17.273 6.80903 18.0682 8.01389 18.4571 9.5Z" fill="#8d45f6"></path></g><defs><clipPath id="clip0_15582_41983"><rect width="20" height="20" fill="white" transform="translate(2 2)"></rect></clipPath></defs></svg> 