<?xml version="1.0" encoding="UTF-8"?> <svg xmlns="http://www.w3.org/2000/svg" width="24" height="24" viewBox="0 0 24 24" fill="none"><g clip-path="url(#clip0_15582_43133)"><path d="M5.33203 18.6663V16.9997H7.62371L7.29037 16.708C6.56815 16.0691 6.0612 15.34 5.76953 14.5205C5.47787 13.7011 5.33203 12.8747 5.33203 12.0413C5.33203 10.4997 5.79384 9.12815 6.71745 7.92676C7.64107 6.72537 8.84593 5.93023 10.332 5.54134V7.29134C9.33205 7.65245 8.52649 8.26704 7.91537 9.13509C7.30426 10.0031 6.9987 10.9719 6.9987 12.0413C6.9987 12.6663 7.11676 13.274 7.35287 13.8643C7.58898 14.4545 7.95704 14.9997 8.45704 15.4997L8.66538 15.708V13.6663H10.332V18.6663H5.33203ZM13.6654 18.458V16.708C14.6654 16.3469 15.471 15.7323 16.0821 14.8643C16.6932 13.9962 16.9987 13.0275 16.9987 11.958C16.9987 11.333 16.8807 10.7254 16.6446 10.1351C16.4085 9.54481 16.0404 8.99967 15.5404 8.49967L15.3321 8.29134V10.333H13.6654V5.33301H18.6654V6.99967H16.3737L16.7071 7.29134C17.3876 7.9719 17.8842 8.71148 18.1967 9.51009C18.5092 10.3087 18.6654 11.1247 18.6654 11.958C18.6654 13.4997 18.2036 14.8712 17.28 16.0726C16.3564 17.274 15.1515 18.0691 13.6654 18.458Z" fill="#8d45f6"></path></g><defs><clipPath id="clip0_15582_43133"><rect width="20" height="20" fill="white" transform="translate(2 2)"></rect></clipPath></defs></svg> 