<?xml version="1.0" encoding="UTF-8"?> <svg xmlns="http://www.w3.org/2000/svg" width="24" height="24" viewBox="0 0 24 24" fill="none"><path d="M9.69746 9.66436L8.86413 7.84618L7.04594 7.01284L8.86413 6.17951L9.69746 4.36133L10.5308 6.17951L12.349 7.01284L10.5308 7.84618L9.69746 9.66436ZM14.6217 11.9371L13.902 10.3841L12.349 9.66436L13.902 8.94466L14.6217 7.39163L15.3414 8.94466L16.8945 9.66436L15.3414 10.3841L14.6217 11.9371ZM6.28836 13.4522L5.56866 11.8992L4.01562 11.1795L5.56866 10.4598L6.28836 8.90678L7.00806 10.4598L8.5611 11.1795L7.00806 11.8992L6.28836 13.4522ZM5.9727 19.7654L4.83634 18.629L10.5182 12.9472L13.5485 15.9775L18.9273 9.93582L19.9879 10.9964L13.5485 18.2502L10.5182 15.2199L5.9727 19.7654Z" fill="#8d45f6"></path></svg> 