<?xml version="1.0" encoding="UTF-8"?> <svg xmlns="http://www.w3.org/2000/svg" width="24" height="25" viewBox="0 0 24 25" fill="none"><g clip-path="url(#clip0_15582_5126)"><path d="M11.168 20.8337V13.9378C10.918 13.785 10.7166 13.5871 10.5638 13.3441C10.411 13.101 10.3347 12.8198 10.3347 12.5003C10.3347 12.042 10.4979 11.6496 10.8242 11.3232C11.1506 10.9969 11.543 10.8337 12.0013 10.8337C12.4597 10.8337 12.852 10.9969 13.1784 11.3232C13.5048 11.6496 13.668 12.042 13.668 12.5003C13.668 12.8198 13.5916 13.1045 13.4388 13.3545C13.2861 13.6045 13.0847 13.7989 12.8347 13.9378V20.8337H11.168ZM6.25131 18.542C5.45964 17.7781 4.83117 16.8788 4.36589 15.8441C3.90061 14.8094 3.66797 13.6948 3.66797 12.5003C3.66797 11.3475 3.88672 10.2642 4.32422 9.25033C4.76172 8.23644 5.35547 7.35449 6.10548 6.60449C6.85548 5.85449 7.73743 5.26074 8.75132 4.82324C9.76521 4.38574 10.8485 4.16699 12.0013 4.16699C13.1541 4.16699 14.2374 4.38574 15.2513 4.82324C16.2652 5.26074 17.1472 5.85449 17.8972 6.60449C18.6472 7.35449 19.2409 8.23644 19.6784 9.25033C20.1159 10.2642 20.3347 11.3475 20.3347 12.5003C20.3347 13.6948 20.102 14.8128 19.6368 15.8545C19.1715 16.8962 18.543 17.792 17.7513 18.542L16.5847 17.3753C17.2236 16.7642 17.7305 16.0385 18.1055 15.1982C18.4805 14.358 18.668 13.4587 18.668 12.5003C18.668 10.6392 18.0222 9.06283 16.7305 7.77116C15.4388 6.47949 13.8624 5.83366 12.0013 5.83366C10.1402 5.83366 8.56382 6.47949 7.27215 7.77116C5.98048 9.06283 5.33464 10.6392 5.33464 12.5003C5.33464 13.4587 5.52214 14.3545 5.89714 15.1878C6.27214 16.0212 6.78603 16.7434 7.43881 17.3545L6.25131 18.542ZM8.60548 16.1878C8.11937 15.7295 7.73048 15.1844 7.43881 14.5524C7.14715 13.9205 7.00131 13.2364 7.00131 12.5003C7.00131 11.1114 7.48743 9.93088 8.45965 8.95866C9.43188 7.98644 10.6124 7.50033 12.0013 7.50033C13.3902 7.50033 14.5708 7.98644 15.543 8.95866C16.5152 9.93088 17.0013 11.1114 17.0013 12.5003C17.0013 13.2364 16.8555 13.9239 16.5638 14.5628C16.2722 15.2017 15.8833 15.7434 15.3972 16.1878L14.2097 15.0003C14.5569 14.6809 14.8312 14.3059 15.0326 13.8753C15.234 13.4448 15.3347 12.9864 15.3347 12.5003C15.3347 11.5837 15.0083 10.7989 14.3555 10.1462C13.7027 9.49338 12.918 9.16699 12.0013 9.16699C11.0847 9.16699 10.2999 9.49338 9.64715 10.1462C8.99437 10.7989 8.66798 11.5837 8.66798 12.5003C8.66798 13.0003 8.76868 13.4621 8.97007 13.8857C9.17146 14.3094 9.44577 14.6809 9.79299 15.0003L8.60548 16.1878Z" fill="#8d45f6"></path></g><defs><clipPath id="clip0_15582_5126"><rect width="20" height="20" fill="white" transform="translate(2 2.5)"></rect></clipPath></defs></svg> 