<?xml version="1.0" encoding="UTF-8"?> <svg xmlns="http://www.w3.org/2000/svg" width="64" height="65" viewBox="0 0 64 65" fill="none"><path d="M51.8883 43.4572C51.8752 43.3753 51.8627 43.2943 51.8491 43.2134C51.7665 42.7112 51.6637 42.2149 51.5442 41.7253C51.3344 40.8701 51.0706 40.0354 50.7556 39.2271C50.4894 38.5425 50.1863 37.8765 49.85 37.231C49.4174 36.4021 48.9295 35.6064 48.3905 34.8497C47.7297 33.9223 46.9916 33.0535 46.1858 32.2529C45.8477 31.9165 45.4976 31.5918 45.1363 31.2807C44.3537 30.605 43.5176 29.9897 42.6369 29.4397C42.6446 29.427 42.6512 29.4133 42.6589 29.4006C43.0624 28.7035 43.4671 28.0072 43.8706 27.31C44.2652 26.6293 44.6597 25.9487 45.0543 25.2681C45.3384 24.7795 45.6218 24.29 45.9041 23.8014C45.9713 23.6854 46.0242 23.5654 46.064 23.4426C46.1745 23.1003 46.1793 22.7405 46.0907 22.406C46.0681 22.3232 46.0408 22.2422 46.0075 22.1632C45.9742 22.0842 45.9356 22.0072 45.8916 21.9331C45.7407 21.6796 45.525 21.4592 45.254 21.2982C45.0145 21.1559 44.7465 21.0711 44.472 21.0467C44.3567 21.0369 44.2408 21.0379 44.1255 21.0496C44.0304 21.0594 43.9359 21.0769 43.842 21.1013C43.5081 21.19 43.1979 21.3734 42.9566 21.6386C42.8698 21.7341 42.7914 21.8395 42.7242 21.9555C42.4408 22.444 42.1573 22.9336 41.8745 23.4221L40.6907 25.464C40.2872 26.1613 39.8825 26.8575 39.479 27.5548C39.435 27.6308 39.3905 27.7068 39.3465 27.7839C39.2853 27.7595 39.2247 27.7351 39.1635 27.7117C36.9386 26.8633 34.5247 26.3992 32.0015 26.3992C31.9326 26.3992 31.8642 26.3992 31.7947 26.4002C29.5514 26.4226 27.396 26.8126 25.385 27.5128C25.1527 27.5937 24.9227 27.6795 24.6945 27.7693C24.6535 27.6981 24.6113 27.6269 24.5709 27.5557C24.1674 26.8585 23.7627 26.1622 23.3592 25.465C22.9646 24.7844 22.57 24.1037 22.1755 23.4231C21.8914 22.9345 21.6079 22.445 21.3257 21.9565C21.2579 21.8404 21.1801 21.7351 21.0933 21.6396C20.852 21.3743 20.5418 21.191 20.2079 21.1023C20.114 21.0779 20.0195 21.0604 19.9238 21.0506C19.8091 21.0389 19.6932 21.0379 19.578 21.0476C19.3034 21.0711 19.0354 21.1559 18.7953 21.2993C18.5243 21.4601 18.3104 21.6805 18.1583 21.934C18.1143 22.0081 18.0751 22.0852 18.0424 22.1642C18.0091 22.2432 17.9806 22.3241 17.9592 22.407C17.8707 22.7415 17.8754 23.1013 17.9854 23.4436C18.0258 23.5665 18.0781 23.6864 18.1452 23.8024C18.4293 24.291 18.7127 24.7805 18.995 25.269C19.3902 25.9497 19.7848 26.6303 20.1793 27.3109C20.5828 28.0082 20.9869 28.7044 21.3904 29.4016C21.3934 29.4075 21.3976 29.4133 21.4005 29.4192C20.5864 29.9253 19.8121 30.486 19.0812 31.0993C18.6432 31.467 18.2213 31.8521 17.8172 32.2548C17.012 33.0554 16.2745 33.9243 15.6125 34.8516C15.0729 35.6084 14.5844 36.4031 14.153 37.2329C13.8166 37.8785 13.5136 38.5445 13.2473 39.229C12.9324 40.0374 12.6685 40.8721 12.4588 41.7273C12.3393 42.2168 12.2377 42.7122 12.1539 43.2154C12.1402 43.2963 12.1278 43.3782 12.1153 43.4591C12.0701 43.7507 12.0321 44.0442 12 44.3397H52C51.9679 44.0442 51.9299 43.7507 51.8853 43.4591L51.8883 43.4572Z" fill="#34A853"></path><path d="M42.4046 38.8078C43.2051 38.275 43.3215 37.0422 42.6643 36.0545C42.0076 35.0668 40.8263 34.698 40.0264 35.2308C39.2259 35.7637 39.1094 36.9964 39.7667 37.9841C40.4233 38.9719 41.6047 39.3407 42.4046 38.8078Z" fill="#202124"></path><path d="M24.2689 37.9873C24.9262 36.9995 24.8097 35.7668 24.0092 35.234C23.2088 34.7012 22.028 35.07 21.3707 36.0577C20.7141 37.0454 20.8306 38.2781 21.6304 38.8109C22.4309 39.3438 23.6123 38.975 24.2689 37.9873Z" fill="#202124"></path></svg> 