<?xml version="1.0" encoding="UTF-8"?> <svg xmlns="http://www.w3.org/2000/svg" width="24" height="24" viewBox="0 0 24 24" fill="none"><path d="M14.0395 9.95908C14.8472 10.7666 15.4622 11.7453 15.8391 12.8226C16.216 13.9 16.3449 15.0483 16.2163 16.1821C17.6442 16.0236 18.9983 15.4655 20.1225 14.5724C21.2467 13.6792 22.0954 12.4872 22.5707 11.1336C23.0461 9.78011 23.1289 8.32003 22.8094 6.92153C22.49 5.5231 21.7814 4.24316 20.7652 3.22915C19.749 2.21508 18.4665 1.50825 17.0656 1.18987C15.6647 0.871553 14.2022 0.954759 12.8465 1.42984C11.4908 1.90499 10.2971 2.75265 9.40289 3.87537C8.50867 4.99803 7.95025 6.35004 7.79199 7.77567C8.93078 7.64668 10.0841 7.77606 11.1658 8.15414C12.2476 8.53216 13.2299 9.14917 14.0395 9.95908Z" fill="#00C4D1"></path><path d="M10.0065 13.9971C9.19675 13.1906 8.57954 12.2123 8.20087 11.1349C7.8222 10.0574 7.69179 8.90869 7.81935 7.77393C6.38833 7.92667 5.02984 8.48036 3.90056 9.37089C2.77135 10.2615 1.91734 11.4527 1.43721 12.8071C0.95707 14.1615 0.870367 15.6237 1.18713 17.0252C1.50383 18.4268 2.21112 19.7101 3.22727 20.7275C4.24342 21.7448 5.52707 22.4546 6.92998 22.7749C8.3329 23.095 9.79791 23.0127 11.156 22.5372C12.5141 22.0618 13.7098 21.2127 14.605 20.088C15.5004 18.9632 16.0588 17.6086 16.2161 16.1804C15.0833 16.3033 13.9374 16.1709 12.8627 15.7931C11.7881 15.4152 10.812 14.8015 10.0065 13.9971Z" fill="#00C4D1"></path></svg> 